# xmcd CD database file
#
# Track frame offsets:
#	150
#	22941
#	42826
#	59914
#	86239
#	105394
#	122822
#	152975
#	179333
#	200758
#	228763
#	250180
#	270803
#	296519
#	321854
#
# Disc length: 4765 seconds
#
# Revision: 0
# Processed by: cddbd v1.5.2PL0 Copyright (c) Steve Scherf et al.
# Submitted via: CDex 1.51
#
DISCID=cf129b0f
DTITLE=Various Artist - Jazz III 2006
DYEAR=2006
DGENRE=Jazz
TTITLE0=Play Around It - Fourplay
TTITLE1=Boney James - Bedtime Story
TTITLE2=Oystein Sevag - Miles Away
TTITLE3=Miles Davis - Hannibal
TTITLE4=Richard Elliot - Imagine
TTITLE5=Najee - I Wish
TTITLE6=Brian Culbertson - I Wanna Know
TTITLE7=Ronny Jordan - After Hours (The Antidote)
TTITLE8=Richard Elliot - Adia
TTITLE9=Poncho Sanchez - Watermelon Man
TTITLE10=Larry Carlton -  A Place for Skipper
TTITLE11=Ray Obiedo - Terrible Beauty
TTITLE12=Ronny Jordan - A Brighter Day
TTITLE13=Brian Culbertson - Secret Affair
TTITLE14=Gerald Albright - Made In Chicago
EXTD=YEAR: 2006
EXTT0=
EXTT1=
EXTT2=
EXTT3=
EXTT4=
EXTT5=
EXTT6=
EXTT7=
EXTT8=
EXTT9=
EXTT10=
EXTT11=
EXTT12=
EXTT13=
EXTT14=
PLAYORDER=
